<mxfile host="65bd71144e">
    <diagram id="DZRtau3YVgsKaxUGlX1o" name="Page-1">
        <mxGraphModel dx="622" dy="476" grid="1" gridSize="10" guides="1" tooltips="1" connect="1" arrows="1" fold="1" page="1" pageScale="1" pageWidth="850" pageHeight="1100" math="0" shadow="0">
            <root>
                <mxCell id="0"/>
                <mxCell id="1" parent="0"/>
                <mxCell id="49" value="" style="group" vertex="1" connectable="0" parent="1">
                    <mxGeometry x="300" y="120" width="200" height="152.16" as="geometry"/>
                </mxCell>
                <mxCell id="16" value="" style="whiteSpace=wrap;html=1;container=0;" parent="49" vertex="1">
                    <mxGeometry y="62.16" width="200" height="30" as="geometry"/>
                </mxCell>
                <mxCell id="7" value="" style="whiteSpace=wrap;html=1;container=0;" parent="49" vertex="1">
                    <mxGeometry y="2.1599999999999966" width="200" height="30" as="geometry"/>
                </mxCell>
                <mxCell id="9" value="" style="triangle;whiteSpace=wrap;html=1;rotation=90;container=0;" parent="49" vertex="1">
                    <mxGeometry x="84.21052631578948" y="-77.84" width="31.57894736842105" height="190" as="geometry"/>
                </mxCell>
                <mxCell id="10" value="sitting == true?" style="text;html=1;strokeColor=none;fillColor=none;align=center;verticalAlign=middle;whiteSpace=wrap;rounded=0;container=0;" parent="49" vertex="1">
                    <mxGeometry x="68.42105263157896" width="63.1578947368421" height="30" as="geometry"/>
                </mxCell>
                <mxCell id="11" value="Yes" style="text;html=1;strokeColor=none;fillColor=none;align=center;verticalAlign=middle;whiteSpace=wrap;rounded=0;container=0;" parent="49" vertex="1">
                    <mxGeometry y="2.1599999999999966" width="31.57894736842105" height="30" as="geometry"/>
                </mxCell>
                <mxCell id="12" value="No" style="text;html=1;strokeColor=none;fillColor=none;align=center;verticalAlign=middle;whiteSpace=wrap;rounded=0;container=0;" parent="49" vertex="1">
                    <mxGeometry x="168.42105263157896" y="2.1599999999999966" width="31.57894736842105" height="30" as="geometry"/>
                </mxCell>
                <mxCell id="13" value="" style="whiteSpace=wrap;html=1;container=0;" parent="49" vertex="1">
                    <mxGeometry y="32.16" width="200" height="30" as="geometry"/>
                </mxCell>
                <mxCell id="14" value="" style="endArrow=none;html=1;entryX=1;entryY=0.5;entryDx=0;entryDy=0;" parent="49" target="9" edge="1">
                    <mxGeometry width="50" height="50" relative="1" as="geometry">
                        <mxPoint x="100" y="92.16" as="sourcePoint"/>
                        <mxPoint x="126.31578947368422" y="112.16" as="targetPoint"/>
                    </mxGeometry>
                </mxCell>
                <mxCell id="15" value="PushChairBack()" style="text;html=1;strokeColor=none;fillColor=none;align=center;verticalAlign=middle;whiteSpace=wrap;rounded=0;container=0;" parent="49" vertex="1">
                    <mxGeometry y="32.16" width="94.73684210526315" height="30" as="geometry"/>
                </mxCell>
                <mxCell id="17" value="StandUp()" style="text;html=1;strokeColor=none;fillColor=none;align=center;verticalAlign=middle;whiteSpace=wrap;rounded=0;container=0;" parent="49" vertex="1">
                    <mxGeometry y="62.16" width="94.73684210526315" height="30" as="geometry"/>
                </mxCell>
                <mxCell id="34" value="FindPath()" style="rounded=0;whiteSpace=wrap;html=1;" parent="49" vertex="1">
                    <mxGeometry y="92.16" width="200" height="30" as="geometry"/>
                </mxCell>
                <mxCell id="35" value="Walk()" style="rounded=0;whiteSpace=wrap;html=1;" parent="49" vertex="1">
                    <mxGeometry y="122.16" width="200" height="30" as="geometry"/>
                </mxCell>
                <mxCell id="36" value="" style="whiteSpace=wrap;html=1;container=0;" vertex="1" parent="1">
                    <mxGeometry y="182.16" width="200" height="30" as="geometry"/>
                </mxCell>
                <mxCell id="37" value="" style="whiteSpace=wrap;html=1;container=0;" vertex="1" parent="1">
                    <mxGeometry y="122.16" width="200" height="30" as="geometry"/>
                </mxCell>
                <mxCell id="38" value="" style="triangle;whiteSpace=wrap;html=1;rotation=90;container=0;" vertex="1" parent="1">
                    <mxGeometry x="84.21052631578948" y="42.16" width="31.57894736842105" height="190" as="geometry"/>
                </mxCell>
                <mxCell id="39" value="sitting == true?" style="text;html=1;strokeColor=none;fillColor=none;align=center;verticalAlign=middle;whiteSpace=wrap;rounded=0;container=0;" vertex="1" parent="1">
                    <mxGeometry x="68.42105263157896" y="120" width="63.1578947368421" height="30" as="geometry"/>
                </mxCell>
                <mxCell id="40" value="Yes" style="text;html=1;strokeColor=none;fillColor=none;align=center;verticalAlign=middle;whiteSpace=wrap;rounded=0;container=0;" vertex="1" parent="1">
                    <mxGeometry y="122.16" width="31.57894736842105" height="30" as="geometry"/>
                </mxCell>
                <mxCell id="41" value="No" style="text;html=1;strokeColor=none;fillColor=none;align=center;verticalAlign=middle;whiteSpace=wrap;rounded=0;container=0;" vertex="1" parent="1">
                    <mxGeometry x="168.42105263157896" y="122.16" width="31.57894736842105" height="30" as="geometry"/>
                </mxCell>
                <mxCell id="42" value="" style="whiteSpace=wrap;html=1;container=0;" vertex="1" parent="1">
                    <mxGeometry y="152.16" width="200" height="30" as="geometry"/>
                </mxCell>
                <mxCell id="43" value="" style="endArrow=none;html=1;entryX=1;entryY=0.5;entryDx=0;entryDy=0;" edge="1" parent="1" target="38">
                    <mxGeometry width="50" height="50" relative="1" as="geometry">
                        <mxPoint x="100" y="212.16" as="sourcePoint"/>
                        <mxPoint x="126.31578947368416" y="232.16" as="targetPoint"/>
                    </mxGeometry>
                </mxCell>
                <mxCell id="44" value="PushChairBack()" style="text;html=1;strokeColor=none;fillColor=none;align=center;verticalAlign=middle;whiteSpace=wrap;rounded=0;container=0;" vertex="1" parent="1">
                    <mxGeometry y="152.16" width="100" height="30" as="geometry"/>
                </mxCell>
                <mxCell id="45" value="StandUp()" style="text;html=1;strokeColor=none;fillColor=none;align=center;verticalAlign=middle;whiteSpace=wrap;rounded=0;container=0;" vertex="1" parent="1">
                    <mxGeometry y="182.16" width="100" height="30" as="geometry"/>
                </mxCell>
                <mxCell id="46" value="" style="rounded=0;whiteSpace=wrap;html=1;container=0;" vertex="1" parent="1">
                    <mxGeometry y="240" width="200" height="120" as="geometry"/>
                </mxCell>
                <mxCell id="51" value="" style="whiteSpace=wrap;html=1;container=0;" vertex="1" parent="1">
                    <mxGeometry x="40" y="240" width="160" height="60" as="geometry"/>
                </mxCell>
                <mxCell id="52" value="WalkForward()" style="whiteSpace=wrap;html=1;container=0;" vertex="1" parent="1">
                    <mxGeometry x="80" y="270" width="120" height="30" as="geometry"/>
                </mxCell>
                <mxCell id="53" value="HoldOutRightHand()" style="whiteSpace=wrap;html=1;container=0;" vertex="1" parent="1">
                    <mxGeometry y="210" width="200" height="30" as="geometry"/>
                </mxCell>
                <mxCell id="54" value="NoCollisionFront == true" style="text;html=1;strokeColor=none;fillColor=none;align=center;verticalAlign=middle;whiteSpace=wrap;rounded=0;" vertex="1" parent="1">
                    <mxGeometry x="40" y="240" width="140" height="30" as="geometry"/>
                </mxCell>
                <mxCell id="55" value="TurnLeft90Degrees()" style="whiteSpace=wrap;html=1;container=0;" vertex="1" parent="1">
                    <mxGeometry x="40" y="300" width="160" height="30" as="geometry"/>
                </mxCell>
                <mxCell id="56" value="RighthandReachedDoor == true" style="text;html=1;strokeColor=none;fillColor=none;align=center;verticalAlign=middle;whiteSpace=wrap;rounded=0;" vertex="1" parent="1">
                    <mxGeometry y="330" width="200" height="30" as="geometry"/>
                </mxCell>
            </root>
        </mxGraphModel>
    </diagram>
</mxfile>